<?xml version="1.0" encoding="UTF-8"?>
<svg width="700pt" height="700pt" version="1.1" viewBox="0 0 700 700" xmlns="http://www.w3.org/2000/svg" xmlns:xlink="http://www.w3.org/1999/xlink">
 <defs>
 </defs>
 <g>
  <path d="m444.3 165.65c-4.5352-3.8086-11.145-3.2461-14.953 1.1211l-70.168 82.039c-5.6562-3.0781-12.098-4.3672-18.594-3.9219-9.2969 0.72656-17.922 5.0977-23.969 12.266-6.2148 7.168-9.1836 16.184-8.457 25.648 0.72656 9.2969 5.0977 17.922 12.266 23.969 6.4961 5.4883 14.504 8.5664 22.848 8.5664 1.0078 0 1.8477-0.16797 2.8008-0.16797 9.2969-0.72656 17.922-5.0977 23.969-12.266 9.7422-11.258 10.977-26.938 4.3672-39.312l71.008-82.992c3.8086-4.5352 3.25-11.141-1.1172-14.949zm-90.328 123.59c-4.9297 5.7695-13.945 6.4961-19.711 1.3984-2.9688-2.4062-4.6484-5.7695-4.9297-9.5742-0.28125-3.6406 0.83984-7.3359 3.3594-10.137 2.4062-2.9688 5.7695-4.6484 9.5742-4.9297h1.1211c3.3594 0 6.4961 1.1211 9.1836 3.3594 5.7695 4.9336 6.4414 13.949 1.4023 19.883z"/>
  <path d="m343.39 72.91c-114.3 0-207.14 92.848-207.14 207.14 0 114.13 92.848 207.03 207.14 207.03 114.13 0 207.03-92.848 207.03-207.03 0.003906-114.29-92.902-207.14-207.03-207.14zm0 386.01c-77.953 0-144.43-50.008-168.84-119.62h42c22.961 49.168 72.016 80.586 126.84 80.586 55.105 0 105.67-33.098 127.96-83.273h41.719c-23.688 71.008-90.773 122.3-169.68 122.3zm120.91-143.47c-4.5352 0-8.2891 2.6875-9.8555 6.8867-17.473 45.641-62.16 76.383-111.05 76.383-48.609 0-91.895-29.008-110.21-73.977-1.5664-3.9219-5.375-6.6094-9.7422-6.6094h-54.938c-2.6875-12.266-4.0898-24.922-4.0898-38.023 0-98.672 80.305-178.98 178.98-178.98 98.668 0.003907 178.86 80.309 178.86 178.92 0 12.098-1.2891 23.969-3.5273 35.391z"/>
  <path d="m476.45 280.05c0 3.8086-3.2461 7.0547-7.0547 7.0547-3.9219 0-7.0547-3.2461-7.0547-7.0547 0-25.199-7.8945-49.336-22.566-69.609-2.2383-3.0781-1.5664-7.6172 1.5664-9.8555 3.2461-2.2383 7.6172-1.5664 9.8555 1.5664 16.516 22.797 25.254 49.73 25.254 77.898z"/>
  <path d="m407.12 171.14c-1.8477 3.3594-6.0469 4.8164-9.4648 2.9688-16.91-8.625-35.223-13.105-54.266-13.105-65.688 0-118.95 53.426-118.95 119.05 0 3.8086-3.2461 7.0547-7.0547 7.0547-3.9219 0-7.0547-3.2461-7.0547-7.0547 0-73.414 59.586-133.17 133.05-133.17 21 0 42 5.0977 60.594 14.672 3.5273 1.8477 4.8164 6.0508 3.1367 9.5781z"/>
  <use x="70" y="644" xlink:href="#h"/>
  <use x="90.550781" y="644" xlink:href="#d"/>
  <use x="104.359375" y="644" xlink:href="#a"/>
  <use x="123.347656" y="644" xlink:href="#f"/>
  <use x="142.242188" y="644" xlink:href="#c"/>
  <use x="155.628906" y="644" xlink:href="#a"/>
  <use x="174.617188" y="644" xlink:href="#l"/>
  <use x="204.410156" y="644" xlink:href="#k"/>
  <use x="224.453125" y="644" xlink:href="#j"/>
  <use x="252.453125" y="644" xlink:href="#i"/>
  <use x="280.3125" y="644" xlink:href="#a"/>
  <use x="299.304688" y="644" xlink:href="#u"/>
  <use x="319.347656" y="644" xlink:href="#f"/>
  <use x="338.242188" y="644" xlink:href="#e"/>
  <use x="367.921875" y="644" xlink:href="#h"/>
  <use x="388.472656" y="644" xlink:href="#g"/>
  <use x="408.40625" y="644" xlink:href="#b"/>
  <use x="427.640625" y="644" xlink:href="#t"/>
  <use x="453.507812" y="644" xlink:href="#e"/>
  <use x="70" y="672" xlink:href="#s"/>
  <use x="82.183594" y="672" xlink:href="#d"/>
  <use x="95.992188" y="672" xlink:href="#b"/>
  <use x="115.226562" y="672" xlink:href="#r"/>
  <use x="154.152344" y="672" xlink:href="#c"/>
  <use x="167.535156" y="672" xlink:href="#g"/>
  <use x="187.46875" y="672" xlink:href="#a"/>
  <use x="216.207031" y="672" xlink:href="#q"/>
  <use x="239.640625" y="672" xlink:href="#b"/>
  <use x="258.878906" y="672" xlink:href="#p"/>
  <use x="278.8125" y="672" xlink:href="#e"/>
  <use x="308.492188" y="672" xlink:href="#o"/>
  <use x="329.015625" y="672" xlink:href="#d"/>
  <use x="342.820312" y="672" xlink:href="#b"/>
  <use x="362.058594" y="672" xlink:href="#n"/>
  <use x="371.65625" y="672" xlink:href="#a"/>
  <use x="390.648438" y="672" xlink:href="#m"/>
  <use x="407.242188" y="672" xlink:href="#c"/>
 </g>
</svg>
