<svg 
  width="24" 
  height="24" 
  fill="none" 
  xmlns="http://www.w3.org/2000/svg"
>
  <path d="M21.874 9.69l-1.544-.26a8.72 8.72 0 00-.62-1.499l.91-1.273a1.355 1.355 0 00-.148-1.75l-1.37-1.37a1.35 1.35 0 00-1.746-.147l-1.277.91a8.63 8.63 0 00-1.554-.639l-.257-1.526A1.358 1.358 0 0012.926 1h-1.935c-.666 0-1.231.478-1.342 1.135l-.266 1.563a8.505 8.505 0 00-1.494.63l-1.264-.91a1.35 1.35 0 00-.79-.253c-.363 0-.708.142-.96.4L3.5 4.933a1.36 1.36 0 00-.147 1.751l.92 1.291A8.516 8.516 0 003.66 9.48l-1.526.258A1.358 1.358 0 001 11.078v1.935c0 .667.478 1.232 1.135 1.342l1.563.267c.16.515.372 1.016.63 1.494l-.906 1.259a1.355 1.355 0 00.147 1.75l1.37 1.37a1.349 1.349 0 001.746.147l1.291-.919c.465.244.952.441 1.453.598l.257 1.544c.11.657.676 1.135 1.342 1.135h1.94c.666 0 1.231-.478 1.341-1.135l.262-1.544a8.72 8.72 0 001.499-.62l1.273.91c.23.165.505.252.79.252.363 0 .703-.142.96-.4l1.37-1.37a1.36 1.36 0 00.147-1.75l-.91-1.278c.253-.483.464-.984.62-1.498l1.545-.258A1.358 1.358 0 0023 12.967v-1.934a1.341 1.341 0 00-1.126-1.342zm-.106 3.277a.12.12 0 01-.1.12l-1.931.322a.617.617 0 00-.496.455 7.357 7.357 0 01-.8 1.925.621.621 0 00.028.676l1.135 1.6a.125.125 0 01-.014.155l-1.37 1.37a.117.117 0 01-.087.037.113.113 0 01-.069-.023l-1.595-1.135a.621.621 0 00-.675-.028 7.357 7.357 0 01-1.926.8.61.61 0 00-.455.496l-.326 1.93a.119.119 0 01-.12.101h-1.934a.119.119 0 01-.12-.1l-.322-1.931a.617.617 0 00-.455-.496 7.645 7.645 0 01-1.884-.772.636.636 0 00-.312-.083.605.605 0 00-.359.115l-1.608 1.144a.137.137 0 01-.07.023.123.123 0 01-.087-.037l-1.37-1.37a.125.125 0 01-.013-.155l1.13-1.586a.629.629 0 00.028-.68 7.288 7.288 0 01-.809-1.921.63.63 0 00-.496-.455l-1.944-.331a.12.12 0 01-.101-.12V11.08c0-.06.041-.11.101-.12l1.916-.322a.621.621 0 00.501-.46c.17-.675.432-1.327.786-1.93a.614.614 0 00-.032-.67L4.37 5.968a.125.125 0 01.013-.156l1.37-1.37a.117.117 0 01.087-.037c.028 0 .05.01.07.023L7.493 5.56a.63.63 0 00.68.028 7.288 7.288 0 011.921-.81.63.63 0 00.455-.496l.33-1.944a.12.12 0 01.12-.1h1.935c.06 0 .11.04.12.1l.321 1.917a.621.621 0 00.46.5 7.459 7.459 0 011.972.81.621.621 0 00.675-.028l1.586-1.14a.137.137 0 01.069-.023c.018 0 .055.005.087.037l1.37 1.37a.125.125 0 01.013.156L18.473 7.53a.62.62 0 00-.027.675c.358.602.625 1.25.8 1.926a.61.61 0 00.496.455l1.93.326c.06.01.1.06.1.12v1.934h-.004z" fill="#BFC0C4" stroke="#BFC0C4" stroke-width=".5"/>
  <path d="M12.002 7.249a4.75 4.75 0 00-4.748 4.747 4.75 4.75 0 004.748 4.748 4.75 4.75 0 004.747-4.748 4.75 4.75 0 00-4.747-4.747zm0 8.254a3.509 3.509 0 01-3.507-3.507 3.509 3.509 0 013.507-3.506 3.509 3.509 0 013.506 3.506 3.509 3.509 0 01-3.506 3.507z" fill="#BFC0C4" stroke="#BFC0C4" stroke-width=".5"/></svg>